<svg width="134" height="152" viewBox="0 0 134 152" fill="none" xmlns="http://www.w3.org/2000/svg">
<path d="M133.993 44.9771C133.992 42.4447 133.451 40.207 132.355 38.2871C131.279 36.398 129.668 34.8152 127.507 33.5637C109.668 23.2776 91.8117 13.0229 73.9783 2.72633C69.1706 -0.049285 64.5091 0.0524282 59.7369 2.86788C52.6364 7.05489 17.0867 27.4221 6.49336 33.5579C2.13071 36.084 0.00784915 39.9491 0.00680056 44.9723C-1.52588e-05 65.6583 0.00680056 86.3443 -1.52588e-05 107.03C-1.52588e-05 109.507 0.51956 111.702 1.56657 113.593C2.64295 115.539 4.27665 117.165 6.48759 118.445C17.0815 124.581 52.6359 144.946 59.7349 149.135C64.5091 151.952 69.1706 152.052 73.9799 149.276C91.8138 138.979 109.671 128.725 127.513 118.438C129.724 117.159 131.358 115.532 132.434 113.588C133.479 111.696 134 109.502 134 107.025C134 107.025 134 65.6636 133.993 44.9771Z" fill="#A179DC"/>
<path d="M67.2049 75.7996L1.56647 113.593C2.64285 115.538 4.27654 117.165 6.48749 118.445C17.0814 124.58 52.6358 144.946 59.7347 149.135C64.509 151.952 69.1705 152.052 73.9798 149.276C91.8136 138.979 109.671 128.724 127.513 118.438C129.724 117.159 131.357 115.532 132.434 113.588L67.2049 75.7996Z" fill="#280068"/>
<path d="M133.993 44.9769C133.992 42.4445 133.45 40.2068 132.355 38.2869L67.2049 75.8001L132.434 113.587C133.479 111.696 133.999 109.502 134 107.024C134 107.024 134 65.6634 133.993 44.9769Z" fill="#390091"/>
<path d="M105.851 61.6721V68.7365H112.915V61.6721H116.447V68.7365H123.512V72.2686H116.447V79.3324H123.512V82.8646H116.447V89.9289H112.915V82.8646H105.851V89.9289H102.319V82.8646H95.2549V79.3324H102.319V72.2686H95.2549V68.7365H102.319V61.6721H105.851ZM112.915 72.2681H105.851V79.3324H112.915V72.2681Z" fill="white"/>
<path d="M67.3492 26.1939C85.775 26.1939 101.862 36.2006 110.479 51.0748L110.395 50.9316L88.7152 63.414C84.4444 56.1824 76.6146 51.3018 67.6318 51.2011L67.3487 51.1995C53.6515 51.1995 42.547 62.3041 42.547 76.0013C42.5425 80.3185 43.6704 84.5613 45.8181 88.3064C50.0932 95.7697 58.1301 100.803 67.3492 100.803C76.6256 100.803 84.7081 95.7058 88.9611 88.1628L88.8579 88.3436L110.504 100.884C101.982 115.632 86.1153 125.608 67.9039 125.807L67.3492 125.81C48.8653 125.81 32.7327 115.741 24.1375 100.788C19.9416 93.4885 17.5408 85.0259 17.5408 76.0013C17.5408 48.4937 39.8401 26.1934 67.3487 26.1934L67.3492 26.1939Z" fill="white"/>
</svg>
