<svg width="144" height="163" viewBox="0 0 144 163" fill="none" xmlns="http://www.w3.org/2000/svg">
<path d="M142.168 121.686C143.298 119.729 144 117.524 144 115.544V46.8052C144 44.825 143.299 42.6203 142.168 40.6631L72 81.1746L142.168 121.686Z" fill="#00599C"/>
<path d="M78.2353 160.712L137.765 126.343C139.48 125.353 141.038 123.644 142.168 121.686L72 81.1746L1.832 121.687C2.96188 123.644 4.52094 125.354 6.23529 126.343L65.7647 160.712C69.1939 162.693 74.8061 162.693 78.2353 160.712Z" fill="#004482"/>
<path d="M142.168 40.6627C141.038 38.705 139.479 36.9954 137.765 36.0052L78.2353 1.6363C74.8061 -0.343936 69.1939 -0.343936 65.7647 1.6363L6.23529 36.0052C2.80565 37.985 0 42.8452 0 46.8052V115.544C0 117.524 0.701647 119.729 1.832 121.686L72 81.1747L142.168 40.6627Z" fill="#659AD2"/>
<path d="M72 129.175C45.5327 129.175 24 107.642 24 81.1746C24 54.7073 45.5327 33.1746 72 33.1746C89.0786 33.1746 105.007 42.3651 113.568 57.1595L92.7944 69.1802C88.5097 61.775 80.5412 57.1746 72 57.1746C58.7661 57.1746 48 67.9407 48 81.1746C48 94.408 58.7661 105.175 72 105.175C80.5421 105.175 88.5106 100.574 92.7958 93.1675L113.569 105.188C105.008 119.984 89.0795 129.175 72 129.175Z" fill="white"/>
<path d="M120 78.5077H114.666V73.1746H109.334V78.5077H104V83.8409H109.334V89.1746H114.666V83.8409H120V78.5077Z" fill="white"/>
<path d="M140 78.5077H134.666V73.1746H129.334V78.5077H124V83.8409H129.334V89.1746H134.666V83.8409H140V78.5077Z" fill="white"/>
</svg>
