<svg width="67" height="94" viewBox="0 0 67 94" fill="none" xmlns="http://www.w3.org/2000/svg">
<path d="M33.0076 93.2949L6.01525 85.8015L0 18.335H66.096L60.0745 85.7912L33.0076 93.2949Z" fill="#264DE4"/>
<path d="M54.9194 81.4951L60.0649 23.8506H33.048V87.5586L54.9194 81.4951Z" fill="#2965F1"/>
<path d="M13.7897 48.8737L14.5312 57.1482H33.048V48.8737H13.7897ZM12.2994 32.126L13.0516 40.4005H33.048V32.126H12.2994ZM33.048 70.3635L33.0117 70.3731L23.7965 67.8848L23.2073 61.2856H14.9009L16.0601 74.2778L33.0099 78.9829L33.048 78.9725V70.3635Z" fill="#EBEBEB"/>
<path d="M15.5554 0H25.577V4.19101H19.7464V8.38202H25.5775V12.5728H15.5554V0ZM27.5815 0H37.6033V3.64434H31.7725V4.37315H37.6033V12.7552H27.5818V8.92818H33.4126V8.19937H27.5813V0H27.5815ZM39.6079 0H49.6297V3.64434H43.7989V4.37315H49.6297V12.7552H39.6079V8.92818H45.4387V8.19937H39.6081V0H39.6079Z" fill="white"/>
<path d="M52.2535 48.8737L53.7471 32.126H33.0195V40.4005H44.679L43.9261 48.8737H33.0195V57.1482H43.2087L42.248 67.8796L33.0193 70.3705V78.979L49.9826 74.2778L50.1069 72.8798L52.0517 51.0956L52.2535 48.8737Z" fill="white"/>
</svg>
