<svg width="103" height="105" viewBox="0 0 103 105" fill="none" xmlns="http://www.w3.org/2000/svg">
<path d="M51.6332 24.0474V34.8682M51.6332 24.0474C51.6332 18.0712 56.4099 13.2266 62.3023 13.2266C68.1947 13.2266 72.9714 18.0712 72.9714 24.0474C72.9714 30.0235 68.1947 34.8682 62.3023 34.8682M51.6332 24.0474C51.6332 18.0712 46.8564 13.2266 40.964 13.2266C35.0716 13.2266 30.2949 18.0712 30.2949 24.0474C30.2949 30.0235 35.0716 34.8682 40.964 34.8682M51.6332 34.8682H62.3023M51.6332 34.8682H40.964M51.6332 34.8682V60.8381M62.3023 34.8682H76.3864C81.1666 34.8682 83.5534 34.8682 85.3792 35.8117C86.9852 36.6416 88.2944 37.965 89.1127 39.5938C90.0421 41.4438 90.0421 43.8667 90.0421 48.7054V60.8381M40.964 34.8682H26.8816C22.1014 34.8682 19.7095 34.8682 17.8837 35.8117C16.2776 36.6416 14.9728 37.965 14.1545 39.5938C13.2242 41.4456 13.2242 43.8715 13.2242 48.7196V60.8381M13.2242 60.8381V72.9582C13.2242 77.8064 13.2242 80.2292 14.1545 82.081C14.9728 83.7098 16.2776 85.0355 17.8837 85.8654C19.7077 86.808 22.0967 86.808 26.8676 86.808H51.6332M13.2242 60.8381H51.6332M51.6332 60.8381V86.808M51.6332 60.8381H90.0421M51.6332 86.808H76.3988C81.1696 86.808 83.5552 86.808 85.3792 85.8654C86.9852 85.0355 88.2944 83.7098 89.1127 82.081C90.0421 80.231 90.0421 77.8116 90.0421 72.9729V60.8381" stroke="white" stroke-width="2" stroke-linecap="round" stroke-linejoin="round"/>
</svg>
