<svg width="82" height="32" viewBox="0 0 82 32" fill="none" xmlns="http://www.w3.org/2000/svg">
<rect x="0.5" y="0.5" width="81" height="30.8714" rx="15.4357" fill="#141414" stroke="#AE1218"/>
<path d="M24.799 21.4707C24.673 21.4707 24.568 21.4287 24.484 21.3447C24.4 21.2607 24.358 21.1557 24.358 21.0297V12.7347C24.358 12.6087 24.4 12.5037 24.484 12.4197C24.568 12.3357 24.673 12.2937 24.799 12.2937C24.925 12.2937 25.03 12.3357 25.114 12.4197C25.198 12.5037 25.24 12.6087 25.24 12.7347V16.3817H31.057V12.7347C31.057 12.6087 31.099 12.5037 31.183 12.4197C31.267 12.3357 31.372 12.2937 31.498 12.2937C31.624 12.2937 31.729 12.3357 31.813 12.4197C31.897 12.5037 31.939 12.6087 31.939 12.7347V21.0297C31.939 21.1557 31.897 21.2607 31.813 21.3447C31.729 21.4287 31.624 21.4707 31.498 21.4707C31.372 21.4707 31.267 21.4287 31.183 21.3447C31.099 21.2607 31.057 21.1557 31.057 21.0297V17.2637H25.24V21.0297C25.24 21.1557 25.198 21.2607 25.114 21.3447C25.03 21.4287 24.925 21.4707 24.799 21.4707ZM36.6899 21.4707C35.9479 21.4707 35.3996 21.2934 35.0449 20.9387C34.6903 20.584 34.5129 20.0357 34.5129 19.2937C34.5129 18.547 34.6903 17.9964 35.0449 17.6417C35.3996 17.287 35.9479 17.1097 36.6899 17.1097H39.8049C39.7863 16.5357 39.6486 16.1367 39.3919 15.9127C39.1399 15.6887 38.7059 15.5767 38.0899 15.5767H37.2779C36.7273 15.5767 36.3213 15.6304 36.0599 15.7377C35.8033 15.8404 35.6376 16.02 35.5629 16.2767C35.5163 16.4167 35.4579 16.5194 35.3879 16.5847C35.3226 16.6454 35.2223 16.6757 35.0869 16.6757C34.9423 16.6757 34.8279 16.636 34.7439 16.5567C34.6646 16.4727 34.6366 16.3607 34.6599 16.2207C34.7486 15.6887 35.0076 15.3014 35.4369 15.0587C35.8663 14.816 36.4799 14.6947 37.2779 14.6947H38.0899C38.9859 14.6947 39.6416 14.9047 40.0569 15.3247C40.4769 15.74 40.6869 16.3957 40.6869 17.2917V21.0297C40.6869 21.3237 40.5399 21.4707 40.2459 21.4707C39.9519 21.4707 39.8049 21.3237 39.8049 21.0297V20.4557C39.3429 21.1324 38.5659 21.4707 37.4739 21.4707H36.6899ZM36.6899 20.5887H37.4739C37.8939 20.5887 38.2673 20.5444 38.5939 20.4557C38.9253 20.367 39.1959 20.22 39.4059 20.0147C39.6206 19.8094 39.7536 19.5317 39.8049 19.1817V17.9917H36.6899C36.1906 17.9917 35.8499 18.0827 35.6679 18.2647C35.4859 18.4467 35.3949 18.7897 35.3949 19.2937C35.3949 19.793 35.4859 20.1337 35.6679 20.3157C35.8499 20.4977 36.1906 20.5887 36.6899 20.5887ZM43.7072 21.4707C43.4132 21.4707 43.2662 21.3237 43.2662 21.0297V15.1357C43.2662 14.8417 43.4132 14.6947 43.7072 14.6947C44.0012 14.6947 44.1482 14.8417 44.1482 15.1357V16.0317C44.4049 15.5977 44.7572 15.2664 45.2052 15.0377C45.6532 14.809 46.1782 14.6947 46.7802 14.6947C47.0742 14.6947 47.2212 14.8417 47.2212 15.1357C47.2212 15.4297 47.0742 15.5767 46.7802 15.5767C45.9589 15.5767 45.3242 15.7517 44.8762 16.1017C44.4329 16.4517 44.1902 16.9394 44.1482 17.5647V21.0297C44.1482 21.3237 44.0012 21.4707 43.7072 21.4707ZM50.8615 21.4707C49.9702 21.4707 49.3145 21.2607 48.8945 20.8407C48.4745 20.4207 48.2645 19.765 48.2645 18.8737V17.2917C48.2645 16.3957 48.4745 15.74 48.8945 15.3247C49.3145 14.9047 49.9702 14.6947 50.8615 14.6947H53.7245V12.1537C53.7245 11.8597 53.8715 11.7127 54.1655 11.7127C54.4595 11.7127 54.6065 11.8597 54.6065 12.1537V21.0297C54.6065 21.3237 54.4595 21.4707 54.1655 21.4707C53.8715 21.4707 53.7245 21.3237 53.7245 21.0297V20.5957C53.5192 20.8804 53.2275 21.0974 52.8495 21.2467C52.4715 21.396 51.9862 21.4707 51.3935 21.4707H50.8615ZM50.8615 20.5887H51.3935C52.0842 20.5887 52.6442 20.486 53.0735 20.2807C53.5075 20.0707 53.7245 19.758 53.7245 19.3427V15.5767H50.8615C50.2175 15.5767 49.7695 15.7027 49.5175 15.9547C49.2702 16.202 49.1465 16.6477 49.1465 17.2917V18.8737C49.1465 19.5177 49.2702 19.9657 49.5175 20.2177C49.7695 20.465 50.2175 20.5887 50.8615 20.5887Z" fill="white"/>
</svg>
