<svg width="68" height="99" viewBox="0 0 68 99" fill="none" xmlns="http://www.w3.org/2000/svg">
<path d="M67.0488 19.874L61.0272 90.1961L33.9596 98.0187L6.96657 90.2069L0.951172 19.874H67.0488Z" fill="#E44D26"/>
<path d="M34 92.0396L55.872 85.7186L61.0176 25.625H34V92.0396Z" fill="#F16529"/>
<path d="M22.2942 42.877H34V34.251H13.251L13.4489 36.5652L15.4828 60.3363H34V51.7102H23.0505L22.2942 42.877ZM24.1591 64.6494H15.8525L17.0117 78.1936L33.962 83.0986L34 83.0878V74.113L33.9638 74.123L24.7483 71.529L24.1591 64.6494Z" fill="#EBEBEB"/>
<path d="M7.10071 0.760742H11.3058V5.09173H15.1526V0.760742H19.358V13.876H15.1528V9.48429H11.3061V13.876H7.10097V0.760742H7.10071ZM24.8876 5.11009H21.1861V0.760742H32.7972V5.11009H29.0934V13.876H24.8883V5.11009H24.8881H24.8876ZM34.6399 0.760742H39.0245L41.7217 5.36911L44.4163 0.760742H48.8028V13.876H44.6147V7.37538L41.7217 12.0386H41.6492L38.7543 7.37538V13.876H34.6399V0.760742ZM50.8955 0.760742H55.1019V9.54101H61.0154V13.876H50.8952V0.760742H50.8955Z" fill="white"/>
<path d="M33.9715 60.3363H44.1609L43.2001 71.5236L33.9712 74.1203V83.0945L50.9349 78.1936L51.0593 76.7362L53.004 54.0266L53.2059 51.7102H33.9715V60.3363ZM33.9715 42.856V42.877H53.9588L54.1246 40.9383L54.5018 36.5652L54.6995 34.251H33.9715V42.8562V42.856Z" fill="white"/>
</svg>
