<svg width="82" height="32" viewBox="0 0 82 32" fill="none" xmlns="http://www.w3.org/2000/svg">
<rect x="0.5" y="0.5" width="81" height="30.8714" rx="15.4357" fill="#141414" stroke="#F16529"/>
<path d="M15.799 21C15.505 21 15.358 20.853 15.358 20.559V12.264C15.358 11.97 15.505 11.823 15.799 11.823C16.0043 11.823 16.17 11.9187 16.296 12.11L19.719 17.318L19.523 17.346L22.96 12.11C23.0813 11.9187 23.2587 11.823 23.492 11.823C23.744 11.823 23.87 11.97 23.87 12.264V20.559C23.87 20.853 23.723 21 23.429 21C23.135 21 22.988 20.853 22.988 20.559V13.146L23.254 13.237L20.118 17.962C19.992 18.1533 19.8147 18.249 19.586 18.249C19.404 18.249 19.25 18.1533 19.124 17.962L15.988 13.237L16.24 13.321V20.559C16.24 20.853 16.093 21 15.799 21ZM27.2266 17.962V18.417C27.2266 19.0563 27.3503 19.4997 27.5976 19.747C27.8496 19.9943 28.2976 20.118 28.9416 20.118H30.0896C30.6449 20.118 31.0486 20.0527 31.3006 19.922C31.5573 19.7913 31.7136 19.565 31.7696 19.243C31.8023 19.103 31.8536 18.998 31.9236 18.928C31.9936 18.858 32.0986 18.823 32.2386 18.823C32.3833 18.823 32.4929 18.8627 32.5676 18.942C32.6469 19.0167 32.6749 19.1287 32.6516 19.278C32.5769 19.8613 32.3273 20.2953 31.9026 20.58C31.4826 20.86 30.8783 21 30.0896 21H28.9416C28.0503 21 27.3946 20.79 26.9746 20.37C26.5546 19.95 26.3446 19.299 26.3446 18.417V16.821C26.3446 15.9157 26.5546 15.2553 26.9746 14.84C27.3946 14.42 28.0503 14.2147 28.9416 14.224H30.0896C30.9856 14.224 31.6413 14.434 32.0566 14.854C32.4766 15.2693 32.6866 15.925 32.6866 16.821V17.521C32.6866 17.815 32.5396 17.962 32.2456 17.962H27.2266ZM28.9416 15.106C28.2976 15.0967 27.8496 15.2157 27.5976 15.463C27.3503 15.7103 27.2266 16.163 27.2266 16.821V17.08H31.8046V16.821C31.8046 16.1723 31.6809 15.7243 31.4336 15.477C31.1863 15.2297 30.7383 15.106 30.0896 15.106H28.9416ZM37.5275 21C36.6362 21 35.9805 20.79 35.5605 20.37C35.1405 19.95 34.9305 19.2943 34.9305 18.403V16.821C34.9305 15.925 35.1405 15.2693 35.5605 14.854C35.9805 14.434 36.6362 14.224 37.5275 14.224H40.3905V11.683C40.3905 11.389 40.5375 11.242 40.8315 11.242C41.1255 11.242 41.2725 11.389 41.2725 11.683V20.559C41.2725 20.853 41.1255 21 40.8315 21C40.5375 21 40.3905 20.853 40.3905 20.559V20.125C40.1852 20.4097 39.8935 20.6267 39.5155 20.776C39.1375 20.9253 38.6522 21 38.0595 21H37.5275ZM37.5275 20.118H38.0595C38.7502 20.118 39.3102 20.0153 39.7395 19.81C40.1735 19.6 40.3905 19.2873 40.3905 18.872V15.106H37.5275C36.8835 15.106 36.4355 15.232 36.1835 15.484C35.9362 15.7313 35.8125 16.177 35.8125 16.821V18.403C35.8125 19.047 35.9362 19.495 36.1835 19.747C36.4355 19.9943 36.8835 20.118 37.5275 20.118ZM44.1232 12.992C43.7592 12.992 43.5772 12.8077 43.5772 12.439V12.089C43.5772 11.7297 43.7592 11.55 44.1232 11.55H44.4662C44.8162 11.55 44.9912 11.7297 44.9912 12.089V12.439C44.9912 12.8077 44.8162 12.992 44.4662 12.992H44.1232ZM44.2912 21C43.9972 21 43.8502 20.853 43.8502 20.559V14.665C43.8502 14.371 43.9972 14.224 44.2912 14.224C44.5852 14.224 44.7322 14.371 44.7322 14.665V20.559C44.7322 20.853 44.5852 21 44.2912 21ZM53.0739 14.224C53.3679 14.224 53.5149 14.371 53.5149 14.665V20.559C53.5149 20.853 53.3679 21 53.0739 21C52.7799 21 52.6329 20.853 52.6329 20.559V20.034C52.1756 20.678 51.3986 21 50.3019 21H49.9099C49.0186 21 48.3629 20.79 47.9429 20.37C47.5229 19.95 47.3129 19.2943 47.3129 18.403V14.665C47.3129 14.371 47.4599 14.224 47.7539 14.224C48.0479 14.224 48.1949 14.371 48.1949 14.665V18.403C48.1949 19.047 48.3186 19.495 48.5659 19.747C48.8179 19.9943 49.2659 20.118 49.9099 20.118H50.3019C50.9692 20.118 51.5106 20.02 51.9259 19.824C52.3459 19.6233 52.5816 19.3177 52.6329 18.907V14.665C52.6329 14.371 52.7799 14.224 53.0739 14.224ZM63.7689 14.217C64.5669 14.217 65.1362 14.413 65.4769 14.805C65.8222 15.197 65.9949 15.848 65.9949 16.758V20.566C65.9949 20.86 65.8479 21.007 65.5539 21.007C65.2599 21.007 65.1129 20.86 65.1129 20.566V16.758C65.1129 16.17 65.0079 15.7477 64.7979 15.491C64.5926 15.2297 64.2496 15.099 63.7689 15.099H63.1879C62.6046 15.099 62.1869 15.2297 61.9349 15.491C61.6829 15.7477 61.5569 16.17 61.5569 16.758V20.566C61.5569 20.86 61.4099 21.007 61.1159 21.007C60.8219 21.007 60.6749 20.86 60.6749 20.566V16.758C60.6749 16.17 60.5699 15.7477 60.3599 15.491C60.1546 15.2297 59.8116 15.099 59.3309 15.099H58.7499C58.1666 15.099 57.7489 15.2297 57.4969 15.491C57.2449 15.7477 57.1189 16.17 57.1189 16.758V20.566C57.1189 20.86 56.9719 21.007 56.6779 21.007C56.3839 21.007 56.2369 20.86 56.2369 20.566V14.665C56.2369 14.371 56.3839 14.224 56.6779 14.224C56.9719 14.224 57.1189 14.371 57.1189 14.665V15.134C57.3382 14.8073 57.5902 14.574 57.8749 14.434C58.1642 14.2893 58.5212 14.217 58.9459 14.217H59.3309C59.8489 14.217 60.2619 14.301 60.5699 14.469C60.8826 14.6323 61.1252 14.903 61.2979 15.281C61.5126 14.8983 61.7669 14.6253 62.0609 14.462C62.3549 14.2987 62.7306 14.217 63.1879 14.217H63.7689Z" fill="white"/>
</svg>
