<svg width="139" height="146" viewBox="0 0 139 146" fill="none" xmlns="http://www.w3.org/2000/svg">
<path d="M68.7154 0.30957C33.7021 0.309573 35.8885 16.3955 35.8885 16.3955L35.9275 33.0603H69.3399V38.0639H22.6563C22.6563 38.0639 0.251221 35.372 0.251221 72.7996C0.251218 110.227 19.8068 108.9 19.8068 108.9H31.4778V91.532C31.4778 91.532 30.8487 70.8147 50.7211 70.8147C70.5936 70.8147 83.8603 70.8147 83.8603 70.8147C83.8603 70.8147 102.479 71.1336 102.479 51.7514C102.479 32.3693 102.479 19.7036 102.479 19.7036C102.479 19.7036 105.306 0.30957 68.7154 0.30957ZM50.2918 11.516C53.616 11.516 56.3029 14.3624 56.3029 17.8842C56.3029 21.4059 53.616 24.2524 50.2918 24.2524C46.9675 24.2524 44.2806 21.4059 44.2806 17.8842C44.2806 14.3624 46.9675 11.516 50.2918 11.516Z" fill="url(#paint0_linear_159_59)"/>
<path d="M69.7098 145.665C104.723 145.665 102.537 129.58 102.537 129.58L102.498 112.915H69.0853V107.911H115.769C115.769 107.911 138.174 110.603 138.174 73.1754C138.174 35.7479 118.618 37.0752 118.618 37.0752H106.947V54.443C106.947 54.443 107.577 75.1603 87.7041 75.1603C67.8317 75.1603 54.565 75.1603 54.565 75.1603C54.565 75.1603 35.9461 74.8415 35.9461 94.2236C35.9461 113.606 35.9461 126.271 35.9461 126.271C35.9461 126.271 33.1193 145.665 69.7098 145.665ZM88.1335 134.459C84.8092 134.459 82.1224 131.613 82.1224 128.091C82.1224 124.569 84.8092 121.723 88.1335 121.723C91.4578 121.723 94.1446 124.569 94.1446 128.091C94.1446 131.613 91.4578 134.459 88.1335 134.459Z" fill="url(#paint1_linear_159_59)"/>
<defs>
<linearGradient id="paint0_linear_159_59" x1="13.5059" y1="13.0149" x2="85.6498" y2="81.3412" gradientUnits="userSpaceOnUse">
<stop stop-color="#387EB8"/>
<stop offset="1" stop-color="#366994"/>
</linearGradient>
<linearGradient id="paint1_linear_159_59" x1="55.4589" y1="59.1316" x2="132.736" y2="129.015" gradientUnits="userSpaceOnUse">
<stop stop-color="#FFE052"/>
<stop offset="1" stop-color="#FFC331"/>
</linearGradient>
</defs>
</svg>
