<svg width="156" height="142" viewBox="0 0 156 142" fill="none" xmlns="http://www.w3.org/2000/svg">
<g clip-path="url(#clip0_159_66)">
<path d="M78.0001 85.0068C85.6792 85.0068 91.9044 78.6542 91.9044 70.8178C91.9044 62.9815 85.6792 56.6289 78.0001 56.6289C70.3209 56.6289 64.0957 62.9815 64.0957 70.8178C64.0957 78.6542 70.3209 85.0068 78.0001 85.0068Z" fill="#61DAFB"/>
<path fill-rule="evenodd" clip-rule="evenodd" d="M11.4322 61.9646C8.05861 65.0724 6.64136 68.0698 6.64136 70.8182C6.64136 73.5665 8.05861 76.564 11.4322 79.6717C14.8055 82.7792 19.8692 85.7297 26.403 88.2754C39.4483 93.3583 57.6897 96.5717 78.0001 96.5717C98.3104 96.5717 116.552 93.3583 129.597 88.2754C136.131 85.7297 141.195 82.7792 144.568 79.6717C147.941 76.564 149.359 73.5665 149.359 70.8182C149.359 68.0698 147.941 65.0724 144.568 61.9646C141.195 58.8572 136.131 55.9067 129.597 53.3609C116.552 48.2781 98.3104 45.0647 78.0001 45.0647C57.6897 45.0647 39.4483 48.2781 26.403 53.3609C19.8692 55.9067 14.8055 58.8572 11.4322 61.9646ZM24.0845 47.1642C38.0422 41.7258 57.1052 38.4316 78.0001 38.4316C98.8949 38.4316 117.958 41.7258 131.916 47.1642C138.883 49.8791 144.746 53.1927 148.923 57.041C153.101 60.889 155.859 65.5391 155.859 70.8182C155.859 76.0973 153.101 80.7474 148.923 84.5954C144.746 88.4437 138.883 91.7573 131.916 94.4722C117.958 99.9106 98.8949 103.205 78.0001 103.205C57.1052 103.205 38.0422 99.9106 24.0845 94.4722C17.1168 91.7573 11.2543 88.4437 7.07672 84.5954C2.89953 80.7474 0.141357 76.0973 0.141357 70.8182C0.141357 65.5391 2.89953 60.889 7.07672 57.041C11.2543 53.1927 17.1168 49.8791 24.0845 47.1642Z" fill="#61DAFB"/>
<path fill-rule="evenodd" clip-rule="evenodd" d="M52.2296 7.56039C47.905 6.13277 44.6524 6.37885 42.3199 7.75286C39.9874 9.12686 38.1522 11.8778 37.2017 16.4129C36.2513 20.9474 36.2794 26.8974 37.3861 33.9441C39.5958 48.0136 45.9904 65.7403 56.1469 83.6889C66.3033 101.637 78.1523 116.151 88.9895 125.138C94.4174 129.64 99.4536 132.64 103.778 134.067C108.102 135.495 111.355 135.249 113.687 133.875C116.02 132.501 117.855 129.75 118.806 125.215C119.756 120.68 119.728 114.73 118.621 107.683C116.412 93.6138 110.017 75.8871 99.8604 57.9385C89.704 39.9899 77.855 25.4762 67.0178 16.489C61.5899 11.9877 56.5537 8.98787 52.2296 7.56039ZM71.1174 11.3421C82.7127 20.9579 95.0411 36.1572 105.49 54.6224C115.939 73.0875 122.675 91.5806 125.04 106.634C126.22 114.149 126.339 120.986 125.162 126.602C123.985 132.217 121.418 136.979 116.938 139.619C112.457 142.258 107.132 142.145 101.777 140.378C96.422 138.61 90.6782 135.086 84.8899 130.285C73.2946 120.67 60.9662 105.47 50.5175 87.005C40.0688 68.5399 33.3318 50.0467 30.9676 34.9932C29.7874 27.4784 29.668 20.641 30.845 15.0254C32.022 9.41013 34.5892 4.64794 39.0695 2.0087C43.5498 -0.630539 48.8756 -0.517843 54.2302 1.24983C59.5853 3.01766 65.3291 6.54184 71.1174 11.3421Z" fill="#61DAFB"/>
<path fill-rule="evenodd" clip-rule="evenodd" d="M118.798 16.4159C117.847 11.8806 116.012 9.12938 113.679 7.75521C111.347 6.38103 108.095 6.13482 103.77 7.56238C99.4466 8.98979 94.4108 11.9896 88.9834 16.491C78.1472 25.4783 66.2994 39.9925 56.1442 57.9418C45.989 75.8911 39.5954 93.6186 37.3864 107.689C36.28 114.736 36.252 120.686 37.2026 125.221C38.1532 129.756 39.9883 132.508 42.3207 133.882C44.6531 135.256 47.9055 135.502 52.2298 134.075C56.5536 132.647 61.5893 129.647 67.0168 125.146C77.853 116.159 89.7007 101.645 99.8559 83.6953C110.011 65.746 116.405 48.0184 118.614 33.9482C119.72 26.9011 119.748 20.9508 118.798 16.4159ZM125.032 34.9976C122.668 50.0519 115.933 68.5459 105.485 87.0118C95.0376 105.478 82.7106 120.677 71.1163 130.293C65.3285 135.094 59.5852 138.618 54.2305 140.386C48.8763 142.153 43.5509 142.266 39.0707 139.626C34.5906 136.987 32.0234 132.224 30.8463 126.609C29.6692 120.992 29.7883 114.155 30.9682 106.64C33.3318 91.5851 40.0676 73.0911 50.5151 54.6253C60.9625 36.1594 73.2896 20.9596 84.8838 11.3436C90.6716 6.54329 96.415 3.01911 101.77 1.25137C107.124 -0.516219 112.449 -0.628731 116.929 2.01083C121.41 4.65039 123.977 9.41296 125.154 15.0286C126.331 20.6446 126.212 27.4824 125.032 34.9976Z" fill="#61DAFB"/>
</g>
<defs>
<clipPath id="clip0_159_66">
<rect width="156" height="141.637" fill="white"/>
</clipPath>
</defs>
</svg>
