<svg width="104" height="105" viewBox="0 0 104 105" fill="none" xmlns="http://www.w3.org/2000/svg">
<path d="M64.6449 87.0029H39.039M17.7007 60.1682V35.9296C17.7007 31.0814 17.7007 28.6555 18.631 26.8038C19.4493 25.1749 20.7541 23.8516 22.3601 23.0216C24.1859 22.0781 26.5778 22.0781 31.358 22.0781H72.3275C77.1077 22.0781 79.4945 22.0781 81.3203 23.0216C82.9263 23.8516 84.2355 25.1749 85.0538 26.8038C85.9832 28.6537 85.9832 31.0767 85.9832 35.9154V60.1807C85.9832 65.0194 85.9832 67.4389 85.0538 69.2888C84.2355 70.9177 82.9263 72.2454 81.3203 73.0754C79.4963 74.018 77.1108 74.018 72.3399 74.018H31.344C26.5731 74.018 24.1841 74.018 22.3601 73.0754C20.7541 72.2454 19.4493 70.9177 18.631 69.2888C17.7007 67.4371 17.7007 65.0164 17.7007 60.1682ZM62.5111 48.0481L43.3066 35.0631V61.033L62.5111 48.0481Z" stroke="white" stroke-width="2" stroke-linecap="round" stroke-linejoin="round"/>
</svg>
