<svg width="24" height="24" viewBox="0 0 24 24" fill="none" xmlns="http://www.w3.org/2000/svg">
<path d="M12.3056 15L15.2223 12M15.2223 12L12.3056 9M15.2223 12H4.52783M4.52783 7.24802V7.2002C4.52783 6.08009 4.52783 5.51962 4.73976 5.0918C4.92618 4.71547 5.22343 4.40973 5.5893 4.21799C6.00524 4 6.55014 4 7.63913 4H16.9725C18.0615 4 18.6052 4 19.0211 4.21799C19.387 4.40973 19.6852 4.71547 19.8717 5.0918C20.0834 5.5192 20.0834 6.07899 20.0834 7.19691V16.8036C20.0834 17.9215 20.0834 18.4805 19.8717 18.9079C19.6852 19.2842 19.387 19.5905 19.0211 19.7822C18.6056 20 18.0621 20 16.9753 20H7.63594C6.54908 20 6.00483 20 5.5893 19.7822C5.22343 19.5905 4.92618 19.2839 4.73976 18.9076C4.52783 18.4798 4.52783 17.9201 4.52783 16.8V16.75" stroke="white" stroke-width="2" stroke-linecap="round" stroke-linejoin="round"/>
</svg>
