<svg width="82" height="32" viewBox="0 0 82 32" fill="none" xmlns="http://www.w3.org/2000/svg">
<rect x="0.5" y="0.5" width="81" height="30.8714" rx="15.4357" fill="#141414" stroke="#12AE2F"/>
<path d="M24.799 21.4707C24.505 21.4707 24.358 21.3237 24.358 21.0297V12.7347C24.358 12.4407 24.505 12.2937 24.799 12.2937H29.972C30.266 12.2937 30.413 12.4407 30.413 12.7347C30.413 13.0287 30.266 13.1757 29.972 13.1757H25.24V16.3887H28.32C28.614 16.3887 28.761 16.5357 28.761 16.8297C28.761 17.1237 28.614 17.2707 28.32 17.2707H25.24V20.5887H29.972C30.266 20.5887 30.413 20.7357 30.413 21.0297C30.413 21.3237 30.266 21.4707 29.972 21.4707H24.799ZM34.0239 21.4707C33.2819 21.4707 32.7336 21.2934 32.3789 20.9387C32.0242 20.584 31.8469 20.0357 31.8469 19.2937C31.8469 18.547 32.0242 17.9964 32.3789 17.6417C32.7336 17.287 33.2819 17.1097 34.0239 17.1097H37.1389C37.1202 16.5357 36.9826 16.1367 36.7259 15.9127C36.4739 15.6887 36.0399 15.5767 35.4239 15.5767H34.6119C34.0612 15.5767 33.6552 15.6304 33.3939 15.7377C33.1372 15.8404 32.9716 16.02 32.8969 16.2767C32.8502 16.4167 32.7919 16.5194 32.7219 16.5847C32.6566 16.6454 32.5562 16.6757 32.4209 16.6757C32.2762 16.6757 32.1619 16.636 32.0779 16.5567C31.9986 16.4727 31.9706 16.3607 31.9939 16.2207C32.0826 15.6887 32.3416 15.3014 32.7709 15.0587C33.2002 14.816 33.8139 14.6947 34.6119 14.6947H35.4239C36.3199 14.6947 36.9756 14.9047 37.3909 15.3247C37.8109 15.74 38.0209 16.3957 38.0209 17.2917V21.0297C38.0209 21.3237 37.8739 21.4707 37.5799 21.4707C37.2859 21.4707 37.1389 21.3237 37.1389 21.0297V20.4557C36.6769 21.1324 35.8999 21.4707 34.8079 21.4707H34.0239ZM34.0239 20.5887H34.8079C35.2279 20.5887 35.6012 20.5444 35.9279 20.4557C36.2592 20.367 36.5299 20.22 36.7399 20.0147C36.9546 19.8094 37.0876 19.5317 37.1389 19.1817V17.9917H34.0239C33.5246 17.9917 33.1839 18.0827 33.0019 18.2647C32.8199 18.4467 32.7289 18.7897 32.7289 19.2937C32.7289 19.793 32.8199 20.1337 33.0019 20.3157C33.1839 20.4977 33.5246 20.5887 34.0239 20.5887ZM42.1192 21.4637C41.5405 21.4637 41.0925 21.3424 40.7752 21.0997C40.4579 20.8524 40.2619 20.479 40.1872 19.9797C40.1685 19.8304 40.1989 19.716 40.2782 19.6367C40.3622 19.5527 40.4765 19.5107 40.6212 19.5107C40.7659 19.5107 40.8709 19.548 40.9362 19.6227C41.0062 19.6927 41.0552 19.8 41.0832 19.9447C41.1299 20.1827 41.2325 20.3484 41.3912 20.4417C41.5499 20.535 41.7925 20.5817 42.1192 20.5817H44.4152C44.8305 20.5817 45.1129 20.507 45.2622 20.3577C45.4115 20.2084 45.4862 19.926 45.4862 19.5107C45.4862 19.0954 45.4115 18.813 45.2622 18.6637C45.1129 18.5144 44.8305 18.4397 44.4152 18.4397H42.1542C41.5242 18.4397 41.0529 18.2857 40.7402 17.9777C40.4322 17.6697 40.2782 17.2007 40.2782 16.5707C40.2782 15.9267 40.4322 15.453 40.7402 15.1497C41.0482 14.8417 41.5195 14.6877 42.1542 14.6877H44.3452C45.4185 14.6877 46.0252 15.152 46.1652 16.0807C46.1932 16.2254 46.1652 16.3397 46.0812 16.4237C46.0019 16.503 45.8875 16.5427 45.7382 16.5427C45.5982 16.5427 45.4932 16.5077 45.4232 16.4377C45.3579 16.363 45.3089 16.258 45.2762 16.1227C45.2342 15.9127 45.1432 15.768 45.0032 15.6887C44.8632 15.6094 44.6439 15.5697 44.3452 15.5697H42.1542C41.7669 15.5697 41.5032 15.6374 41.3632 15.7727C41.2279 15.908 41.1602 16.174 41.1602 16.5707C41.1602 16.9487 41.2302 17.2077 41.3702 17.3477C41.5102 17.4877 41.7715 17.5577 42.1542 17.5577H44.4152C45.0779 17.5577 45.5679 17.7187 45.8852 18.0407C46.2072 18.358 46.3682 18.848 46.3682 19.5107C46.3682 20.1734 46.2072 20.6657 45.8852 20.9877C45.5679 21.305 45.0779 21.4637 44.4152 21.4637H42.1192ZM50.4026 24.2707C49.7679 24.2707 49.2966 24.1167 48.9886 23.8087C48.6853 23.5007 48.5336 23.027 48.5336 22.3877C48.5336 22.0937 48.6806 21.9467 48.9746 21.9467C49.2686 21.9467 49.4156 22.0937 49.4156 22.3877C49.4156 22.7797 49.4833 23.0434 49.6186 23.1787C49.7539 23.3187 50.0153 23.3887 50.4026 23.3887H52.9226C53.3099 23.3887 53.5713 23.3187 53.7066 23.1787C53.8419 23.0434 53.9096 22.7797 53.9096 22.3877V20.5117C53.6436 20.885 53.3146 21.1394 52.9226 21.2747C52.5306 21.41 52.0826 21.4777 51.5786 21.4777H51.0886C50.2066 21.4777 49.5603 21.2724 49.1496 20.8617C48.7389 20.451 48.5336 19.8094 48.5336 18.9367V15.1287C48.5336 14.8347 48.6806 14.6877 48.9746 14.6877C49.2686 14.6877 49.4156 14.8347 49.4156 15.1287V18.9367C49.4156 19.5667 49.5346 20.0007 49.7726 20.2387C50.0153 20.4767 50.4539 20.5957 51.0886 20.5957H51.5786C52.3813 20.5957 52.9693 20.458 53.3426 20.1827C53.7206 19.9074 53.9096 19.492 53.9096 18.9367V15.1287C53.9096 14.8347 54.0566 14.6877 54.3506 14.6877C54.6446 14.6877 54.7916 14.8347 54.7916 15.1287V22.3877C54.7916 23.027 54.6376 23.5007 54.3296 23.8087C54.0263 24.1167 53.5573 24.2707 52.9226 24.2707H50.4026Z" fill="white"/>
</svg>
