<svg width="22" height="21" viewBox="0 0 22 21" fill="none" xmlns="http://www.w3.org/2000/svg">
<path d="M18.6541 7.80781L18.3184 7.62954C18.2663 7.60186 18.2407 7.58797 18.2155 7.57358C17.9651 7.43044 17.7541 7.23268 17.6002 6.99607C17.5847 6.97226 17.5701 6.9473 17.5402 6.89795C17.5104 6.84867 17.4953 6.8237 17.4814 6.79898C17.3433 6.55282 17.2686 6.2785 17.2641 5.9993C17.2637 5.97123 17.2638 5.94255 17.2648 5.88553L17.2713 5.51343C17.2818 4.91797 17.2871 4.61931 17.1994 4.35129C17.1216 4.11321 16.9913 3.89393 16.8173 3.70784C16.6207 3.49749 16.3485 3.34742 15.8035 3.04766L15.3509 2.79867C14.8075 2.49975 14.5356 2.35024 14.2471 2.29324C13.9919 2.24281 13.7285 2.24515 13.4742 2.29965C13.1871 2.36116 12.9187 2.51457 12.3822 2.82121L12.3792 2.8226L12.0548 3.00798C12.0035 3.03729 11.9776 3.05206 11.9519 3.0657C11.6968 3.20108 11.412 3.27594 11.1203 3.28488C11.0909 3.28578 11.061 3.28578 11.0012 3.28578C10.9418 3.28578 10.9106 3.28578 10.8812 3.28488C10.5889 3.2759 10.3035 3.20064 10.0481 3.0647C10.0223 3.051 9.99683 3.03611 9.94544 3.00666L9.61904 2.81961C9.07887 2.51006 8.80838 2.35506 8.51975 2.29324C8.2644 2.23855 8.00009 2.23704 7.74391 2.28811C7.45466 2.34578 7.18279 2.49641 6.63903 2.79765L6.63662 2.79867L6.18959 3.04633L6.18464 3.04922C5.64579 3.34775 5.37571 3.49737 5.18072 3.70686C5.00769 3.89277 4.87836 4.11171 4.80095 4.34915C4.71345 4.61754 4.71811 4.91684 4.72865 5.5151L4.7352 5.88668C4.7362 5.94295 4.73792 5.97091 4.73749 5.99858C4.73315 6.27836 4.65745 6.55324 4.51893 6.79983C4.50523 6.82422 4.49047 6.84861 4.461 6.89732C4.4315 6.94607 4.41721 6.97031 4.40191 6.99384C4.24725 7.2317 4.03529 7.43062 3.78339 7.574C3.75847 7.58819 3.73221 7.60182 3.68061 7.62912L3.34918 7.80444C2.79774 8.09614 2.52209 8.24211 2.32151 8.44985C2.14407 8.63363 2.01002 8.85161 1.9282 9.08902C1.83571 9.35738 1.83578 9.6583 1.83722 10.2601L1.83839 10.752C1.83981 11.3497 1.84176 11.6484 1.93446 11.915C2.01647 12.1508 2.14954 12.3675 2.32599 12.5501C2.52543 12.7566 2.79834 12.9017 3.3456 13.1923L3.67408 13.3667C3.72998 13.3964 3.75811 13.4111 3.78507 13.4266C4.03469 13.57 4.24498 13.7684 4.39833 14.0049C4.4149 14.0305 4.4308 14.057 4.4626 14.11C4.49401 14.1624 4.51008 14.1886 4.52461 14.2148C4.65906 14.4578 4.73104 14.7278 4.73595 15.0025C4.73648 15.0322 4.73603 15.0622 4.73496 15.1226L4.72865 15.4792C4.71804 16.0795 4.71341 16.38 4.80143 16.6491C4.87929 16.8872 5.00944 17.1065 5.18341 17.2926C5.38006 17.5029 5.65267 17.6529 6.19765 17.9527L6.65021 18.2016C7.19366 18.5005 7.46528 18.6499 7.7538 18.7069C8.00904 18.7573 8.27259 18.7553 8.52691 18.7008C8.81436 18.6392 9.08369 18.4853 9.62172 18.1778L9.94606 17.9924C9.99737 17.9631 10.0234 17.9484 10.0491 17.9347C10.3042 17.7993 10.5886 17.7241 10.8803 17.7152C10.9097 17.7143 10.9396 17.7143 10.9995 17.7143C11.0594 17.7143 11.0893 17.7143 11.1187 17.7152C11.4111 17.7241 11.6973 17.7996 11.9528 17.9356C11.9753 17.9475 11.9978 17.9605 12.0373 17.9831L12.3821 18.1807C12.9224 18.4903 13.1923 18.6449 13.4809 18.7067C13.7363 18.7614 14.0008 18.7636 14.257 18.7125C14.5461 18.6549 14.8186 18.5039 15.362 18.2029L15.8158 17.9515C16.355 17.6528 16.6253 17.503 16.8204 17.2934C16.9934 17.1075 17.1229 16.8887 17.2003 16.6512C17.2872 16.3848 17.282 16.0878 17.2716 15.4982L17.2648 15.1136C17.2638 15.0573 17.2637 15.0293 17.2641 15.0017C17.2685 14.7219 17.3429 14.4468 17.4814 14.2002C17.4951 14.1759 17.51 14.1513 17.5394 14.1027C17.5689 14.054 17.5841 14.0297 17.5994 14.0062C17.7541 13.7683 17.9663 13.5692 18.2182 13.4259C18.2428 13.4118 18.2681 13.3984 18.3185 13.3718L18.3202 13.371L18.6516 13.1957C19.2031 12.904 19.4793 12.7579 19.6798 12.5501C19.8573 12.3664 19.9912 12.1487 20.073 11.9113C20.1649 11.6445 20.1642 11.3453 20.1628 10.7506L20.1616 10.2481C20.1602 9.65036 20.1594 9.35172 20.0667 9.08517C19.9847 8.84936 19.8509 8.63265 19.6744 8.44999C19.4752 8.24371 19.2019 8.09859 18.6557 7.80855L18.6541 7.80781Z" stroke="white" stroke-width="2" stroke-linecap="round" stroke-linejoin="round"/>
<path d="M7.33364 10.5002C7.33364 12.4332 8.97526 14.0002 11.0003 14.0002C13.0253 14.0002 14.667 12.4332 14.667 10.5002C14.667 8.56721 13.0253 7.00021 11.0003 7.00021C8.97526 7.00021 7.33364 8.56721 7.33364 10.5002Z" stroke="white" stroke-width="2" stroke-linecap="round" stroke-linejoin="round"/>
</svg>
